<svg width="140" height="54" viewBox="0 0 140 54" fill="none" xmlns="http://www.w3.org/2000/svg">
<rect opacity="0.35" x="82.0723" y="23.5" width="24" height="12" rx="3.8" stroke="#010101"/>
<path opacity="0.4" d="M107.572 27.7811V31.8566C108.377 31.5114 108.9 30.7085 108.9 29.8189C108.9 28.9293 108.377 28.1263 107.572 27.7811Z" fill="#010101"/>
<rect x="83.5723" y="25" width="21" height="9" rx="2.5" fill="#010101"/>
<path fill-rule="evenodd" clip-rule="evenodd" d="M65.8428 26.104C68.3299 26.1041 70.7219 27.0262 72.5244 28.6797C72.6601 28.8074 72.8771 28.8058 73.0108 28.6761L74.3083 27.4126C74.376 27.3469 74.4137 27.2578 74.4131 27.1651C74.4126 27.0724 74.3738 26.9838 74.3053 26.9188C69.5743 22.5441 62.1106 22.5441 57.3795 26.9188C57.311 26.9837 57.2721 27.0724 57.2715 27.165C57.2709 27.2577 57.3085 27.3468 57.3762 27.4126L58.674 28.6761C58.8076 28.8059 59.0248 28.8076 59.1604 28.6797C60.9632 27.0261 63.3554 26.104 65.8428 26.104ZM65.8394 30.3243C67.1968 30.3242 68.5056 30.836 69.5118 31.7601C69.6478 31.8913 69.8622 31.8884 69.9949 31.7537L71.2821 30.4344C71.3499 30.3652 71.3875 30.2713 71.3866 30.1738C71.3856 30.0762 71.3461 29.9831 71.2769 29.9153C68.2131 27.0245 63.4684 27.0245 60.4045 29.9153C60.3353 29.9831 60.2958 30.0762 60.2949 30.1738C60.294 30.2714 60.3318 30.3653 60.3997 30.4344L61.6866 31.7537C61.8193 31.8884 62.0336 31.8913 62.1697 31.7601C63.1752 30.8366 64.483 30.3249 65.8394 30.3243ZM68.3639 33.1179C68.3658 33.2232 68.3287 33.3248 68.2614 33.3986L66.0848 35.8533C66.0209 35.9255 65.934 35.9661 65.8432 35.9661C65.7524 35.9661 65.6654 35.9255 65.6016 35.8533L63.4246 33.3986C63.3573 33.3247 63.3203 33.2231 63.3223 33.1178C63.3243 33.0124 63.3651 32.9127 63.4351 32.842C64.8252 31.5282 66.8611 31.5282 68.2512 32.842C68.3212 32.9127 68.3619 33.0125 68.3639 33.1179Z" fill="#010101"/>
<path fill-rule="evenodd" clip-rule="evenodd" d="M49.7723 24.6824C49.7723 24.0493 49.2947 23.5361 48.7056 23.5361H47.6389C47.0498 23.5361 46.5723 24.0493 46.5723 24.6824V34.6163C46.5723 35.2494 47.0498 35.7625 47.6389 35.7625H48.7056C49.2947 35.7625 49.7723 35.2494 49.7723 34.6163V24.6824ZM42.3382 25.9814H43.4048C43.9939 25.9814 44.4715 26.5069 44.4715 27.1552V34.5888C44.4715 35.237 43.9939 35.7625 43.4048 35.7625H42.3382C41.749 35.7625 41.2715 35.237 41.2715 34.5888V27.1552C41.2715 26.5069 41.749 25.9814 42.3382 25.9814ZM38.0064 28.6305H36.9397C36.3506 28.6305 35.873 29.1627 35.873 29.8191V34.5739C35.873 35.2303 36.3506 35.7625 36.9397 35.7625H38.0064C38.5955 35.7625 39.073 35.2303 39.073 34.5739V29.8191C39.073 29.1627 38.5955 28.6305 38.0064 28.6305ZM32.7056 31.0758H31.6389C31.0498 31.0758 30.5723 31.6003 30.5723 32.2475V34.5909C30.5723 35.238 31.0498 35.7625 31.6389 35.7625H32.7056C33.2947 35.7625 33.7723 35.238 33.7723 34.5909V32.2475C33.7723 31.6003 33.2947 31.0758 32.7056 31.0758Z" fill="#010101"/>
</svg>
